<svg xmlns="http://www.w3.org/2000/svg" viewBox="0 0 65 32">
  <path d="M45.2 21.7l1.1-3.8c.3-.9.2-1.8-.2-2.5s-1.1-1.1-2-1.2l-20.8-.3c-.1 0-.3-.1-.3-.2-.1-.1 0-.3.1-.3.1-.1.2-.2.4-.2l21-.3c2-.1 4.1-1.7 4.9-3.6l1-2.4c0-.1.1-.2.1-.3.8-3.5-1.7-6.8-5.5-7.6C42.7.7 40.3 1.6 39 3.5c-.1.1-.2.2-.4.1-.1 0-.3-.1-.3-.2-.6-2.6-3-4.4-5.7-4.3-3 .1-5.5 2.4-5.8 5.4 0 .2-.2.3-.4.3-4.2.5-7.2 4-6.8 8l.1.6c0 .2.2.3.4.3h24.5c.2 0 .4.1.5.2.1.2.1.3.1.5l-.4 1.3c-.3.9-.2 1.8.2 2.5s1.1 1.1 2 1.2l2.8.1c.1 0 .3.1.3.2.1.1 0 .3-.1.3-.1.1-.2.2-.4.2l-33.1.3c-.2 0-.4-.2-.3-.4.6-2.2 2.6-3.8 4.9-3.8h1.1c.2 0 .4-.2.3-.4-.3-1.2-1.5-2-2.7-2h-1.2c-3.6.1-6.6 2.8-7 6.3-.1.5-.1 1-.1 1.5 0 .2.2.4.4.4h32.3c.2 0 .3-.1.4-.2.1-.1.1-.3.2-.4l.5-1.8z" fill="#f38020"/>
  <path d="M49.5 14.1c-.1 0-.2.1-.3.2l-1.1 3.9c-.3.9-.2 1.8.2 2.5s1.1 1.1 2 1.2l3.1.1c.1 0 .3.1.3.2.1.1 0 .3-.1.3-.1.1-.2.2-.4.2H17c.8-2.5 3.1-4.2 5.8-4.2h1.1c.2 0 .4-.2.3-.4-.3-1.2-1.5-2-2.7-2h-1.2c-.8 0-1.5.1-2.2.3-.1-.7-.1-1.4 0-2.1.5-3.8 3.8-6.6 7.7-6.6h.4c.2 0 .3-.1.3-.3.7-3.3 3.3-5.8 6.6-5.9 2.8-.1 5.4 1.5 6.5 4 .1.1.2.2.3.2h.1c2.7-.6 5.4.8 6.3 3.4.1.2.1.3.2.5.1.3.4.4.6.4h.8c2.8 0 5.2 2 5.6 4.8v.5c0 .5-.3.9-.6.9z" fill="#faae40"/>
</svg>
