<svg xmlns="http://www.w3.org/2000/svg" viewBox="0 0 512 512">
  <path fill="#ff7a59" d="M388.8 193.9v-59.4a51.7 51.7 0 0 0 30-46.8V85.8a51.7 51.7 0 0 0-51.7-51.7h-1.9a51.7 51.7 0 0 0-51.7 51.7v1.9a51.7 51.7 0 0 0 30 46.8v59.4a129.3 129.3 0 0 0-58.5 28L156 118.5a46.3 46.3 0 0 0 1.7-12.4 46.6 46.6 0 1 0-46.6 46.6 46.3 46.3 0 0 0 27.6-9.2l127.4 103.1a129.8 129.8 0 0 0 .3 150.1l-39.1 39.1a41.5 41.5 0 0 0-12.1-1.8 42 42 0 1 0 42 42 41.5 41.5 0 0 0-1.8-12.1l38.6-38.6a130 130 0 1 0 94.8-231.4zM365.3 378a73.7 73.7 0 1 1 0-147.4 73.7 73.7 0 0 1 0 147.4z"/>
</svg>
