<svg xmlns="http://www.w3.org/2000/svg" viewBox="0 0 256 256" fill="none">
  <path d="M141.2 45.6c-4.5 3-7.2 8.4-8.7 13.8-1.5-5.4-5.1-13.2-14.1-13.2-9 0-12.6 7.8-14.1 13.2-1.5-5.4-4.2-10.8-8.7-13.8-4.5-3-10.5-3.6-18.9 1.2l-48.6 84c-3.6 6.6-1.2 14.7 5.4 18.3 6.6 3.6 14.7 1.2 18.3-5.4l29.1-50.4c1.5-2.7 3-4.2 4.8-4.2 1.8 0 3 1.5 3 6v45.6c0 7.5 6 13.5 13.5 13.5s13.5-6 13.5-13.5V95.1c0-4.5 1.2-6 3-6s3.3 1.5 4.8 4.2l29.1 50.4c3.6 6.6 11.7 9 18.3 5.4 6.6-3.6 9-11.7 5.4-18.3l-48.6-84c-8.4-4.8-14.4-4.2-18.9-1.2z" fill="#FBBD71"/>
  <path d="M207.5 45.6c-4.5 3-7.2 8.4-8.7 13.8-1.5-5.4-5.1-13.2-14.1-13.2-9 0-12.6 7.8-14.1 13.2l-5.4 18.6 23.7 41.1c1.5 2.7 3 4.2 4.8 4.2 1.8 0 3-1.5 3-6V71.7c0-7.5 6-13.5 13.5-13.5s13.5 6 13.5 13.5v73.5c0 7.5 6 13.5 13.5 13.5s13.5-6 13.5-13.5V95.1c0-4.5 1.2-6 3-6s3.3 1.5 4.8 4.2l-1.2-2.1-48.6-84c-8.7-4.8-14.7-4.2-19.2-1.2z" fill="#F9A825"/>
  <path d="M48.5 45.6c4.5 3 7.2 8.4 8.7 13.8 1.5-5.4 5.1-13.2 14.1-13.2 9 0 12.6 7.8 14.1 13.2l5.4 18.6-23.7 41.1c-1.5 2.7-3 4.2-4.8 4.2-1.8 0-3-1.5-3-6V71.7c0-7.5-6-13.5-13.5-13.5S32.3 64.2 32.3 71.7v73.5c0 7.5-6 13.5-13.5 13.5S5.3 152.7 5.3 145.2V95.1c0-4.5-1.2-6-3-6s-3.3 1.5-4.8 4.2l1.2-2.1 48.6-84c8.7-4.8 14.7-4.2 19.2-1.2z" fill="#FBBD71"/>
</svg>
